<?xml version="1.0" encoding="utf-8"?>
<!-- Generator: Adobe Illustrator 24.0.0, SVG Export Plug-In . SVG Version: 6.00 Build 0)  -->
<svg version="1.1" id="Layer_1" xmlns="http://www.w3.org/2000/svg" xmlns:xlink="http://www.w3.org/1999/xlink" x="0px" y="0px"
	 viewBox="0 0 85.1 24" style="enable-background:new 0 0 85.1 24;" xml:space="preserve">
<style type="text/css">
	.st0{display:none;enable-background:new    ;}
	.st1{enable-background:new    ;}
	.st2{fill:#016D77;}
	.st3{fill:#004849;}
	.st4{fill:none;stroke:#49B591;stroke-width:0.3105;stroke-miterlimit:10;}
	.st5{fill:#49B591;}
</style>
<g>
	<g class="st0">
	</g>
	<g class="st1">
		<path class="st2" d="M31.2,7.1H29v11.4h-2V7.1h-2.2V5.3h6.3V7.1z"/>
		<path class="st2" d="M37.6,17.4c0,0.7-0.4,1.1-1.1,1.1h-3.3c-0.7,0-1.1-0.4-1.1-1.1V11c0-0.7,0.4-1.1,1.1-1.1h3.3
			c0.7,0,1.1,0.4,1.1,1.1v3.1L37,14.7h-3.1v2.4h1.8v-1.4h1.8V17.4z M35.7,13.4v-2h-1.8v2H35.7z"/>
		<path class="st2" d="M44.5,17.4c0,0.7-0.4,1.1-1.1,1.1h-3.3c-0.7,0-1.1-0.4-1.1-1.1V11c0-0.7,0.4-1.1,1.1-1.1h3.3
			c0.7,0,1.1,0.4,1.1,1.1v2h-1.9v-1.5h-1.7v5.3h1.7v-1.6h1.9V17.4z"/>
		<path class="st2" d="M51.5,18.5h-1.9v-6.9l-1.8,0v6.9h-1.9V5.3h1.9v5c0.5-0.1,0.9-0.1,1.3-0.2c0.6-0.1,1-0.1,1.3-0.1
			c0.7,0,1.1,0.3,1.1,1V18.5z"/>
		<path class="st2" d="M63,12.5c0,0.8-0.4,1.2-1.2,1.2h-3.2v4.8h-2V5.3h5.2c0.8,0,1.2,0.4,1.2,1.2V12.5z M61,12V7h-2.4v5H61z"/>
		<path class="st2" d="M70.8,17.3c0,0.8-0.4,1.2-1.2,1.2h-4.1c-0.8,0-1.2-0.4-1.2-1.2V6.5c0-0.8,0.4-1.2,1.2-1.2h4.1
			c0.8,0,1.2,0.4,1.2,1.2v3.1h-2V7h-2.6v9.8h2.6V14h2V17.3z"/>
		<path class="st2" d="M77.6,17.4c0,0.7-0.4,1.1-1.1,1.1h-3.2c-0.7,0-1.1-0.4-1.1-1.1v-1.8h1.8V17h1.7v-1.3l-3-1.7
			c-0.4-0.2-0.6-0.5-0.6-0.9v-2c0-0.7,0.4-1.1,1.1-1.1h3.2c0.7,0,1.1,0.4,1.1,1.1v1.7h-1.8v-1.3h-1.7v1.2l3,1.7
			c0.4,0.2,0.6,0.5,0.6,0.9V17.4z"/>
	</g>
	<path class="st3" d="M0.3,9.9v4.4c0,2.4,1.3,4.6,3.3,5.8l3.8,2.2c2.1,1.2,4.6,1.2,6.6,0l3.8-2.2c2.1-1.2,3.3-3.4,3.3-5.8V9.9
		c0-2.4-1.3-4.6-3.3-5.8l-3.8-2.2c-2.1-1.2-4.6-1.2-6.7,0L3.7,4.2C1.6,5.3,0.3,7.6,0.3,9.9z"/>
	<g>
		<path class="st4" d="M10.8,14.6c0,0,4.1,2.6,8,0"/>
		<circle class="st5" cx="10.8" cy="14.6" r="0.7"/>
		<g>
			<path class="st5" d="M19.2,13.9c0.2,0,0.4,0.2,0.4,0.4s-0.2,0.4-0.4,0.4s-0.4-0.2-0.4-0.4S19,13.9,19.2,13.9 M19.2,13.6
				c-0.4,0-0.7,0.3-0.7,0.7s0.3,0.7,0.7,0.7s0.7-0.3,0.7-0.7S19.6,13.6,19.2,13.6L19.2,13.6z"/>
		</g>
	</g>
	<g>
		<path class="st4" d="M13.3,13.2c0,0,4.3-2.3,4-6.9"/>
		<circle class="st5" cx="13.3" cy="13.2" r="0.7"/>
		<g>
			<path class="st5" d="M17.2,5.4L17.2,5.4c0.1,0,0.1,0,0.2,0.1c0.2,0.1,0.3,0.4,0.1,0.6c-0.1,0.1-0.2,0.2-0.4,0.2
				c-0.1,0-0.1,0-0.2-0.1c-0.1-0.1-0.2-0.2-0.2-0.3s0-0.2,0-0.3C16.9,5.5,17,5.4,17.2,5.4 M17.2,5.1c-0.3,0-0.5,0.1-0.6,0.4
				c-0.2,0.3-0.1,0.8,0.3,1c0.1,0.1,0.2,0.1,0.4,0.1c0.3,0,0.5-0.1,0.6-0.4c0.2-0.3,0.1-0.8-0.3-1C17.4,5.1,17.3,5.1,17.2,5.1
				L17.2,5.1z"/>
		</g>
	</g>
	<g>
		<path class="st4" d="M13.3,10.4c0,0,0.2-4.9-4-6.9"/>
		<circle class="st5" cx="13.3" cy="10.4" r="0.7"/>
		<g>
			<path class="st5" d="M8.8,2.9L8.8,2.9c0.1,0,0.3,0.1,0.4,0.2C9.3,3.3,9.2,3.5,9,3.7C9,3.7,8.9,3.7,8.8,3.7
				c-0.1,0-0.3-0.1-0.4-0.2C8.3,3.3,8.4,3,8.6,2.9C8.7,2.9,8.8,2.9,8.8,2.9 M8.8,2.6c-0.1,0-0.3,0-0.4,0.1C8.1,2.9,8,3.3,8.2,3.7
				C8.3,3.9,8.6,4,8.8,4c0.1,0,0.3,0,0.4-0.1c0.4-0.2,0.5-0.7,0.3-1C9.3,2.7,9.1,2.6,8.8,2.6L8.8,2.6z"/>
		</g>
	</g>
	<g>
		<path class="st4" d="M10.8,8.9c0,0-4.1-2.6-8,0"/>
		<circle class="st5" cx="10.8" cy="8.9" r="0.7"/>
		<g>
			<path class="st5" d="M2.5,8.9c0.2,0,0.4,0.2,0.4,0.4S2.7,9.7,2.5,9.7S2,9.5,2,9.3S2.2,8.9,2.5,8.9 M2.5,8.5
				c-0.4,0-0.7,0.3-0.7,0.7S2.1,10,2.5,10s0.7-0.3,0.7-0.7S2.9,8.5,2.5,8.5L2.5,8.5z"/>
		</g>
	</g>
	<g>
		<path class="st4" d="M8.4,10.4c0,0-4.3,2.3-4,6.9"/>
		<circle class="st5" cx="8.4" cy="10.4" r="0.7"/>
		<g>
			<path class="st5" d="M4.5,17.3L4.5,17.3c0.1,0,0.2,0,0.2,0.1C4.9,17.5,5,17.8,4.8,18c-0.1,0.1-0.2,0.2-0.4,0.2
				c-0.1,0-0.2,0-0.2-0.1C4.1,18,4,17.8,4.1,17.5C4.2,17.4,4.3,17.3,4.5,17.3 M4.5,17c-0.3,0-0.5,0.1-0.6,0.4
				c-0.2,0.4-0.1,0.8,0.3,1c0.1,0.1,0.2,0.1,0.4,0.1c0.3,0,0.5-0.1,0.6-0.4c0.2-0.4,0.1-0.8-0.3-1C4.7,17.1,4.6,17,4.5,17L4.5,17z"
				/>
		</g>
	</g>
	<g>
		<path class="st4" d="M8.4,13.2c0,0-0.2,4.9,4,6.9"/>
		<circle class="st5" cx="8.4" cy="13.2" r="0.7"/>
		<g>
			<path class="st5" d="M12.8,19.9L12.8,19.9c0.1,0,0.3,0.1,0.4,0.2c0.1,0.1,0.1,0.2,0,0.3s-0.1,0.2-0.2,0.3c-0.1,0-0.1,0.1-0.2,0.1
				c-0.1,0-0.3-0.1-0.4-0.2c-0.1-0.2-0.1-0.5,0.1-0.6C12.7,19.9,12.8,19.9,12.8,19.9 M12.8,19.5c-0.1,0-0.3,0-0.4,0.1
				c-0.4,0.2-0.5,0.6-0.3,1c0.1,0.2,0.4,0.4,0.6,0.4c0.1,0,0.3,0,0.4-0.1c0.4-0.2,0.5-0.6,0.3-1C13.3,19.7,13.1,19.5,12.8,19.5
				L12.8,19.5z"/>
		</g>
	</g>
	<path class="st5" d="M10.8,13.4L10.8,13.4c-0.9,0-1.6-0.7-1.6-1.6l0,0c0-0.9,0.7-1.6,1.6-1.6l0,0c0.9,0,1.6,0.7,1.6,1.6l0,0
		C12.4,12.6,11.7,13.4,10.8,13.4z"/>
</g>
</svg>
