<?xml version="1.0" encoding="utf-8"?>
<!-- Generator: Adobe Illustrator 24.0.0, SVG Export Plug-In . SVG Version: 6.00 Build 0)  -->
<svg version="1.1" id="Layer_1" xmlns="http://www.w3.org/2000/svg" xmlns:xlink="http://www.w3.org/1999/xlink" x="0px" y="0px"
	 viewBox="0 0 123.09 123.52" style="enable-background:new 0 0 123.09 123.52;" xml:space="preserve">
<style type="text/css">
	.st0{fill-rule:evenodd;clip-rule:evenodd;fill:#020203;}
</style>
<g>
	<g>
		<g>
			<g>
				<path d="M42.62,79.28v1.75c0,6.95-1.27,14.13-10.55,14.13c-9.1,0-10.56-6.65-10.56-14.42V53.49c0-8.63,3.66-13.17,10.62-13.17
					c8.72,0,10.25,6.31,10.25,13.21v2.02h-5.19v-2.31c0-4.39-0.62-8.27-5.17-8.27c-4.29,0-5.32,3.46-5.32,8.42v27.63
					c0,5.8,1.28,9.52,5.51,9.52c4.45,0,5.2-3.91,5.2-9.19v-2.06H42.62z"/>
				<path d="M48.33,41.02h5.08v48.85h13.44l-0.62,4.59H48.33V41.02z"/>
			</g>
		</g>
		<g>
			<g>
				<path d="M90.73,91.04v17.13h-5.08V65.61c0-5.55,0-9.13-0.08-11.71h4.84c0.11,0.88,0.22,2.43,0.22,4.41
					c0.97-2.74,3.13-5.05,7.32-5.05c5.53,0,8.23,3.69,8.23,11.72v17.35c0,8.91-3.56,12.78-8.77,12.78
					C93.23,95.1,91.54,92.93,90.73,91.04z M101.03,82.45V65.08c0-5.2-1.92-7.14-4.6-7.14c-4.62,0-5.75,4.01-5.75,9.43v13.09
					c0,4.85,0.65,9.94,5.38,9.94C99.59,90.41,101.03,87.55,101.03,82.45z"/>
			</g>
		</g>
	</g>
	<g>
		<g>
			<path d="M77.63,19.93v74.82h-4.3V19.93H77.63z"/>
		</g>
	</g>
	<g>
		<g>
			<g>
				<path d="M34.03,27.62c0-3.53,0.06-7.48,0.15-9.82h-0.14c-0.97,4.22-3.04,11.11-5.02,17.58H25.2
					c-1.51-5.66-3.65-13.51-4.55-17.64h-0.14c0.18,2.43,0.26,6.68,0.26,10.23v7.41h-4.08V14.69h6.66c1.61,5.4,3.42,12.18,4.04,15.27
					h0.03c0.51-2.72,2.78-9.97,4.5-15.27h6.41v20.68h-4.31V27.62z"/>
				<path d="M60.14,19.85c1.48,5.26,2.71,9.86,3.02,11.73h0.03c0.44-2.56,1.96-7.24,3.31-11.73h4.28L65.3,35.37h-4.52l-5.26-15.53
					H60.14z"/>
			</g>
		</g>
		<g>
			<g>
				<path d="M84.56,28.53c0,1.94,0.98,3.84,3.12,3.84c1.79,0,2.3-0.72,2.71-1.66h4.3c-0.55,1.9-2.25,5.02-7.12,5.02
					c-5.11,0-7.33-3.82-7.33-7.9c0-4.87,2.5-8.35,7.49-8.35c5.33,0,7.15,3.86,7.15,7.73c0,0.53,0,0.87-0.06,1.31H84.56z
					 M90.56,25.89c-0.03-1.81-0.75-3.33-2.85-3.33c-2.06,0-2.89,1.42-3.06,3.33H90.56z"/>
			</g>
		</g>
		<g>
			<path class="st0" d="M55.62,28.21c0-2.23-0.9-4.25-2.37-5.71c-1.53-1.53-3.6-2.38-5.76-2.37c-2.22,0.01-4.22,0.91-5.68,2.37
				c-1.46,1.46-2.37,3.49-2.37,5.72c0,2.23,0.91,4.26,2.37,5.72c1.46,1.46,3.49,2.37,5.72,2.37c2.23,0,4.26-0.91,5.72-2.37
				C54.71,32.47,55.62,30.44,55.62,28.21L55.62,28.21z M54.22,28.21c0,1.85-0.75,3.52-1.96,4.73c-1.21,1.21-2.88,1.96-4.73,1.96
				c-1.85,0-3.52-0.75-4.73-1.96c-1.21-1.21-1.96-2.88-1.96-4.73c0-1.85,0.75-3.52,1.96-4.73c1.2-1.2,2.86-1.95,4.7-1.96
				c1.79-0.01,3.5,0.7,4.77,1.96C53.47,24.69,54.22,26.37,54.22,28.21z"/>
			<path class="st0" d="M47.28,27.74C47.11,27.83,47,28.01,47,28.21c0,0.29,0.24,0.53,0.53,0.53c0.17,0,0.33-0.08,0.42-0.21l2.41,0
				l0.39-0.26l-0.39-0.25l-2.33,0c-0.04-0.12-0.13-0.23-0.25-0.29l0-3.65l-0.27-0.37l-0.23,0.37L47.28,27.74z"/>
			<rect x="50.17" y="22.39" transform="matrix(0.5 -0.866 0.866 0.5 5.786 55.267)" class="st0" width="1.17" height="0.47"/>
			<rect x="52.53" y="24.75" transform="matrix(0.866 -0.5 0.5 0.866 -5.376 29.9049)" class="st0" width="1.17" height="0.47"/>
			<rect x="52.88" y="30.85" transform="matrix(0.5 -0.866 0.866 0.5 -0.6663 61.7223)" class="st0" width="0.47" height="1.17"/>
			<rect x="50.52" y="33.21" transform="matrix(0.866 -0.5 0.5 0.866 -10.1 29.9046)" class="st0" width="0.47" height="1.17"/>
			<rect x="43.72" y="33.56" transform="matrix(0.5 -0.866 0.866 0.5 -7.12 55.2688)" class="st0" width="1.17" height="0.47"/>
			<rect x="41.35" y="31.2" transform="matrix(0.866 -0.5 0.5 0.866 -10.1002 25.1825)" class="st0" width="1.17" height="0.47"/>
			<path class="st0" d="M47.17,22.47v-1.43h0.73v1.43H47.17L47.17,22.47z M53.27,27.85h1.43v0.73h-1.43V27.85L53.27,27.85z
				 M47.89,33.95v1.43h-0.73v-1.43H47.89L47.89,33.95z M41.79,28.57h-1.43v-0.73h1.43V28.57z"/>
			<rect x="41.7" y="24.4" transform="matrix(0.5 -0.866 0.866 0.5 -0.6675 48.8135)" class="st0" width="0.47" height="1.17"/>
			<rect x="44.07" y="22.04" transform="matrix(0.866 -0.5 0.5 0.866 -5.3759 25.1825)" class="st0" width="0.47" height="1.17"/>
		</g>
	</g>
</g>
</svg>
