<?xml version="1.0" encoding="utf-8"?>
<!-- Generator: Adobe Illustrator 24.0.0, SVG Export Plug-In . SVG Version: 6.00 Build 0)  -->
<svg version="1.1" id="Layer_1" xmlns="http://www.w3.org/2000/svg" xmlns:xlink="http://www.w3.org/1999/xlink" x="0px" y="0px"
	 viewBox="0 0 1970.5 2955.1" style="enable-background:new 0 0 1970.5 2955.1;" xml:space="preserve">
<style type="text/css">
	.st0{fill:#1D1D1B;stroke:#000000;stroke-miterlimit:10;}
	.st1{fill:#0ACF83;}
	.st2{fill:#A259FF;}
	.st3{fill:#F24E1E;}
	.st4{fill:#FF7262;}
	.st5{fill:#1ABCFE;}
</style>
<path class="st0" d="M1776.5,2955.1H194c-106.7,0-194-87.3-194-194V194C0,87.3,87.3,0,194,0l1582.5,0c106.7,0,194,87.3,194,194
	v2567.1C1970.5,2867.8,1883.2,2955.1,1776.5,2955.1z"/>
<path class="st1" d="M568.6,2727.6c230,0,416.7-186.7,416.7-416.7v-416.7H568.6c-230,0-416.7,186.7-416.7,416.7
	S338.6,2727.6,568.6,2727.6z"/>
<path class="st2" d="M151.9,1477.6c0-230,186.7-416.7,416.7-416.7h416.7v833.3H568.6C338.6,1894.2,151.9,1707.6,151.9,1477.6z"/>
<path class="st3" d="M151.9,644.2c0-230,186.7-416.7,416.7-416.7h416.7v833.3H568.6C338.6,1060.9,151.9,874.2,151.9,644.2z"/>
<path class="st4" d="M985.2,227.6h416.7c230,0,416.7,186.7,416.7,416.7s-186.7,416.7-416.7,416.7H985.2V227.6z"/>
<path class="st5" d="M1818.6,1477.6c0,230-186.7,416.7-416.7,416.7s-416.7-186.7-416.7-416.7s186.7-416.7,416.7-416.7
	S1818.6,1247.6,1818.6,1477.6z"/>
</svg>
